<?xml version="1.0" standalone="no"?>
<!DOCTYPE svg PUBLIC "-//W3C//DTD SVG 20010904//EN"
 "http://www.w3.org/TR/2001/REC-SVG-20010904/DTD/svg10.dtd">
<svg version="1.0" xmlns="http://www.w3.org/2000/svg"
 width="1024.000000pt" height="1536.000000pt" viewBox="0 0 1024.000000 1536.000000"
 preserveAspectRatio="xMidYMid meet">

<g transform="translate(0.000000,1536.000000) scale(0.100000,-0.100000)"
fill="#000000" stroke="none">
<path d="M5315 13534 c-16 -2 -77 -9 -135 -15 -217 -23 -492 -87 -665 -156
-200 -80 -411 -200 -551 -314 -428 -350 -768 -893 -919 -1471 -63 -243 -89
-445 -100 -768 -4 -123 -12 -201 -22 -233 -11 -34 -13 -68 -9 -110 3 -34 8
-298 11 -587 4 -289 9 -626 13 -748 4 -123 4 -226 1 -228 -11 -6 -156 229
-214 346 -41 82 -109 180 -159 229 l-45 44 21 51 c14 35 22 82 25 151 5 88 2
109 -20 176 -14 42 -42 103 -61 135 l-36 59 0 161 c0 180 -11 235 -61 303 -44
61 -102 85 -207 86 l-84 0 4 71 c3 67 5 72 40 102 51 46 62 100 55 271 -6 144
-21 214 -60 272 -100 148 -653 184 -1063 69 -165 -47 -244 -100 -284 -192 -20
-47 -22 -64 -18 -192 3 -130 5 -145 31 -198 16 -32 43 -70 62 -85 30 -25 34
-34 40 -99 l7 -71 -38 -5 c-110 -16 -215 -82 -256 -162 -42 -81 -34 -248 17
-352 l25 -51 -27 -48 c-21 -38 -28 -66 -31 -128 -6 -98 10 -170 49 -232 30
-48 31 -49 19 -112 -22 -115 18 -242 102 -323 23 -22 45 -40 50 -40 4 0 31
-33 61 -72 91 -124 192 -202 339 -267 l75 -32 12 -51 c17 -74 83 -217 138
-301 59 -89 255 -288 383 -389 228 -181 435 -306 878 -530 l243 -123 -1 -595
c-1 -730 16 -1718 31 -1781 21 -92 123 -156 386 -241 l153 -49 0 -36 c0 -46
19 -242 34 -355 l12 -87 -55 -38 c-30 -21 -70 -57 -88 -81 -39 -52 -83 -185
-83 -252 0 -58 -2 -60 -118 -89 -298 -74 -450 -221 -518 -503 -14 -57 -34
-131 -45 -165 -26 -80 -16 -116 49 -174 26 -23 38 -37 27 -31 -11 5 -31 22
-44 36 -42 45 -57 27 -21 -24 28 -39 116 -86 234 -125 125 -41 170 -50 371
-76 233 -30 520 -36 660 -14 151 23 325 68 382 99 29 15 115 39 218 61 307 65
372 82 446 119 41 20 63 27 49 16 -14 -10 -42 -27 -63 -36 -26 -12 -34 -20
-25 -26 8 -5 2 -8 -18 -8 -17 0 -34 -3 -38 -7 -4 -5 -22 -14 -39 -21 l-32 -12
40 5 c55 8 153 41 192 65 18 10 44 37 59 59 24 37 26 47 25 148 -1 117 -13
161 -80 283 -41 76 -47 129 -26 231 22 104 24 217 6 289 -11 41 -26 67 -61
105 l-47 50 -27 170 c-14 94 -29 187 -32 207 l-6 37 321 0 c177 0 326 3 331 6
14 8 19 -7 35 -102 9 -48 32 -159 51 -247 l35 -158 -28 -67 c-25 -58 -28 -78
-28 -166 1 -99 17 -177 52 -253 17 -36 19 -26 -32 -171 -22 -62 -26 -92 -27
-195 -1 -92 2 -128 14 -151 42 -80 138 -125 402 -191 77 -19 147 -40 155 -48
18 -16 109 -55 187 -80 233 -76 659 -87 954 -25 112 24 223 56 265 76 28 13
29 13 10 -2 -19 -16 -19 -16 10 -10 50 11 148 62 193 100 76 65 120 195 66
195 -18 0 -37 46 -69 166 -45 170 -126 293 -248 377 -31 21 -108 57 -173 80
l-117 42 -17 51 c-14 45 -15 54 -2 70 19 26 10 148 -16 207 -26 58 -101 129
-180 170 -34 17 -64 39 -66 47 -6 18 -50 268 -66 368 -7 41 -8 77 -4 82 5 4
41 18 79 30 135 44 313 118 386 162 123 75 131 103 109 428 -8 129 -29 534
-45 880 -3 69 -8 137 -11 153 -5 24 -3 27 21 27 19 0 46 -20 103 -78 87 -88
185 -151 294 -189 65 -23 84 -25 173 -21 68 4 118 12 156 27 60 23 141 79 180
125 l25 28 109 -21 c335 -63 339 -64 418 -58 88 7 146 29 201 77 58 51 84 115
145 346 11 39 14 42 56 48 69 11 176 69 229 126 26 27 62 81 80 119 18 39 52
92 76 118 98 112 135 267 94 403 -15 51 -15 58 3 114 12 42 18 92 18 161 0
133 -24 183 -135 289 -44 41 -80 81 -80 89 0 9 9 55 21 103 11 48 25 111 30
138 4 28 27 139 49 246 22 107 40 212 40 233 0 75 -53 157 -114 177 -17 5
-103 19 -191 30 -88 11 -187 25 -220 30 -180 28 -833 96 -1040 108 -285 17
-347 -17 -423 -233 -24 -67 -92 -332 -121 -470 l-19 -90 0 140 c0 77 -5 253
-11 390 -6 138 -11 282 -11 321 0 70 0 71 40 103 l40 32 42 -23 c34 -18 59
-23 123 -23 96 0 128 14 214 92 68 61 96 103 139 211 18 42 47 91 70 116 68
74 109 171 138 328 25 137 15 380 -20 501 -49 164 -138 324 -249 445 -83 91
-84 93 -97 241 -13 157 -59 437 -93 567 -23 89 -23 92 -5 114 27 34 22 79 -23
197 -98 260 -258 493 -496 724 -498 484 -1095 714 -1838 707 -99 0 -193 -3
-210 -4z m298 -71 c-13 -2 -35 -2 -50 0 -16 2 -5 4 22 4 28 0 40 -2 28 -4z
m314 -18 c425 -60 801 -211 1113 -446 234 -177 491 -458 614 -671 40 -72 24
-58 -30 25 -61 94 -126 176 -239 307 -47 53 -76 77 -60 49 4 -8 -29 22 -73 65
-45 44 -79 83 -77 87 3 4 -25 25 -61 48 -36 23 -63 45 -59 50 3 5 0 13 -6 17
-8 4 -9 3 -5 -4 13 -22 -5 -12 -94 51 -49 34 -97 68 -107 75 -15 10 -14 11 7
1 19 -9 22 -9 14 0 -6 7 -24 14 -40 16 -16 2 -65 21 -109 43 -155 76 -351 154
-475 189 -69 19 -154 43 -190 53 -83 25 -163 39 -270 49 l-85 8 65 1 c36 1
111 -5 167 -13z m-487 -185 c392 -30 681 -125 990 -328 243 -160 501 -419 674
-677 102 -152 230 -437 290 -641 32 -112 86 -348 86 -377 0 -7 -26 -19 -59
-28 l-59 -15 -5 50 c-4 28 -8 69 -11 91 -3 22 3 3 12 -43 11 -55 20 -81 28
-78 7 3 28 8 48 11 41 8 41 -6 -1 185 -77 351 -224 686 -413 939 -107 143
-340 382 -470 483 -164 127 -388 248 -565 307 -105 34 -320 84 -344 79 -9 -2
19 -10 62 -18 42 -8 77 -18 77 -23 0 -5 -7 -7 -15 -3 -8 3 -15 1 -15 -4 0 -6
-5 -10 -11 -10 -5 0 -7 6 -3 13 6 10 4 10 -7 0 -16 -15 -33 -17 -24 -3 3 6 -1
7 -9 4 -29 -11 -16 -20 47 -32 240 -48 500 -168 727 -335 154 -114 431 -397
485 -497 13 -25 -8 -1 -61 70 -67 89 -231 258 -339 348 -329 276 -703 418
-1155 438 -471 22 -1021 -163 -1395 -469 -83 -67 -236 -219 -300 -297 -115
-141 -261 -387 -325 -549 -31 -80 -95 -338 -119 -481 -20 -122 -37 -328 -44
-523 -2 -53 -8 -101 -13 -105 -11 -10 -155 -34 -162 -28 -7 8 17 403 32 516
51 380 185 748 374 1031 244 363 618 667 1038 843 179 74 477 143 674 155 69
5 130 9 135 9 6 1 71 -3 145 -8z m385 -109 c-8 -14 -25 -14 -25 0 0 5 5 7 10
4 6 -3 10 -1 10 6 0 7 3 10 6 6 3 -3 3 -10 -1 -16z m-250 -116 c55 -8 125 -22
155 -30 30 -8 39 -12 21 -10 -19 3 -60 7 -90 10 l-56 5 45 -15 c25 -8 54 -25
65 -38 11 -13 36 -30 55 -37 19 -8 41 -21 50 -30 8 -8 27 -23 40 -33 14 -10
19 -15 11 -11 -9 5 -12 3 -7 -4 4 -7 18 -12 32 -12 13 0 24 -5 24 -11 0 -5 6
-7 13 -3 9 6 9 5 0 -7 -9 -11 -7 -19 7 -36 9 -12 20 -19 24 -16 3 4 6 2 6 -4
0 -6 10 -13 23 -17 17 -5 19 -8 9 -15 -10 -6 -7 -10 13 -15 15 -4 25 -10 21
-13 -8 -8 24 -43 39 -43 7 0 24 -11 39 -25 15 -14 32 -25 37 -25 6 0 8 -4 5
-9 -3 -5 5 -19 18 -32 13 -13 21 -29 18 -38 -4 -10 -1 -13 11 -8 10 4 17 1 18
-6 3 -45 16 -80 28 -72 13 8 34 -33 28 -55 -3 -13 0 -16 17 -13 13 3 17 2 9
-4 -8 -6 -8 -13 3 -27 9 -13 14 -15 14 -6 0 7 3 10 6 7 4 -4 1 -13 -6 -22 -7
-9 -10 -18 -6 -22 3 -3 6 -1 6 6 0 9 4 9 14 -1 8 -7 12 -16 9 -20 -9 -16 8
-29 22 -18 10 8 15 8 21 -1 4 -7 3 -9 -3 -6 -6 4 -16 0 -22 -7 -10 -11 -7 -18
11 -30 12 -9 18 -16 13 -16 -6 0 -2 -5 8 -11 12 -7 16 -17 11 -31 -5 -16 -3
-20 9 -15 9 3 18 -1 21 -9 3 -8 1 -14 -5 -14 -6 0 -7 -5 -4 -10 4 -6 10 -8 14
-6 4 3 8 -1 8 -9 0 -13 -16 -20 -39 -16 -4 0 -5 -6 -2 -14 4 -8 12 -15 19 -15
8 0 17 -5 21 -12 4 -6 3 -8 -4 -4 -6 3 -13 2 -16 -3 -3 -5 1 -12 10 -15 8 -3
13 -10 9 -15 -3 -5 4 -12 15 -16 11 -4 18 -11 15 -16 -4 -5 -2 -9 3 -9 5 0 8
-13 7 -30 -1 -16 1 -28 4 -26 3 2 15 0 25 -3 24 -9 31 -42 8 -34 -16 4 -16 3
-1 -9 9 -7 19 -23 23 -35 6 -19 4 -22 -11 -17 -11 4 -14 2 -7 -3 6 -4 16 -17
23 -28 12 -20 12 -20 8 1 -3 12 0 28 5 35 8 11 9 10 5 -3 -3 -9 -1 -19 6 -21
9 -3 9 -8 -1 -20 -8 -9 -20 -13 -28 -10 -8 3 -14 0 -14 -6 0 -6 4 -11 10 -11
5 0 7 -6 4 -14 -3 -9 3 -17 16 -21 17 -5 19 -10 9 -21 -11 -13 -5 -19 15 -15
5 1 3 -5 -4 -14 -7 -9 -15 -39 -16 -68 -2 -33 -8 -55 -18 -63 -23 -16 -22 -84
2 -84 14 0 15 -2 2 -10 -13 -8 -12 -10 3 -10 9 0 17 -4 17 -8 0 -8 -15 -12
-54 -13 -18 0 -18 -1 0 -20 10 -11 14 -20 9 -19 -24 5 -34 -1 -30 -19 2 -14
-1 -18 -10 -15 -19 8 -58 -34 -51 -53 5 -13 2 -13 -21 2 l-28 18 26 -29 c62
-70 87 -130 68 -166 -16 -30 -51 -20 -145 42 -116 76 -223 119 -312 125 -43 3
-58 2 -42 -4 26 -8 27 -11 14 -46 -7 -19 -6 -20 8 -1 12 15 17 16 23 6 6 -9 4
-11 -5 -5 -8 5 -11 4 -6 -3 3 -6 19 -10 34 -10 16 1 37 -4 48 -11 17 -11 17
-11 -6 -5 -22 6 -23 5 -11 -9 7 -9 17 -15 21 -12 4 3 7 -6 6 -19 0 -13 -3 -24
-6 -24 -19 1 -30 -3 -30 -13 0 -5 5 -7 11 -3 8 4 9 0 4 -15 -4 -14 -2 -21 7
-21 10 0 10 -2 1 -8 -7 -5 18 -13 60 -21 186 -34 516 -164 604 -238 18 -15 5
-11 -35 13 -139 79 -316 148 -487 190 -181 44 -332 29 -595 -60 -237 -81 -381
-166 -467 -277 -33 -42 -51 -58 -62 -53 -100 41 -130 48 -226 47 -64 0 -118
-6 -149 -16 l-50 -16 -53 59 c-133 146 -420 286 -644 312 -125 15 -233 2 -385
-47 -60 -19 -109 -35 -109 -35 -6 -5 13 205 31 345 38 299 99 520 202 735 30
63 73 160 96 216 51 121 121 218 261 358 294 295 577 428 1025 480 68 8 367
-4 465 -19z m242 -51 c-3 -3 -12 -4 -19 -1 -8 3 -5 6 6 6 11 1 17 -2 13 -5z
m40 -10 c-3 -3 -12 -4 -19 -1 -8 3 -5 6 6 6 11 1 17 -2 13 -5z m40 -10 c-3 -3
-12 -4 -19 -1 -8 3 -5 6 6 6 11 1 17 -2 13 -5z m1801 -719 c-3 -3 -9 2 -12 12
-6 14 -5 15 5 6 7 -7 10 -15 7 -18z m-678 -35 c6 -11 8 -20 6 -20 -3 0 -10 9
-16 20 -6 11 -8 20 -6 20 3 0 10 -9 16 -20z m30 -50 c6 -11 8 -20 6 -20 -3 0
-10 9 -16 20 -6 11 -8 20 -6 20 3 0 10 -9 16 -20z m61 -111 c22 -45 39 -83 37
-85 -2 -2 -23 35 -46 81 -23 47 -40 85 -37 85 3 0 23 -36 46 -81z m78 -174 c0
-5 -6 1 -14 15 -8 14 -14 30 -14 35 0 6 6 -1 14 -15 8 -14 14 -29 14 -35z
m595 -2 c28 -97 92 -493 101 -623 4 -47 8 -94 10 -106 4 -19 -1 -22 -68 -27
-40 -4 -104 -14 -142 -22 -50 -12 -70 -13 -75 -5 -4 6 -10 46 -13 88 -12 139
-69 441 -112 585 -8 28 -15 54 -15 58 0 13 149 46 302 68 4 1 9 -7 12 -16z
m-565 -68 c0 -5 -6 1 -14 15 -8 14 -14 30 -14 35 0 6 6 -1 14 -15 8 -14 14
-29 14 -35z m30 -85 c0 -8 -7 1 -14 20 -18 46 -17 64 0 25 8 -16 14 -37 14
-45z m44 -150 c4 -19 -2 -8 -13 25 -11 33 -19 65 -19 70 1 16 26 -57 32 -95z
m-436 -212 c-1 -46 -3 -9 -3 82 0 91 2 128 3 83 2 -46 2 -120 0 -165z m462
122 c0 -9 -4 -8 -9 5 -5 11 -9 27 -9 35 0 9 4 8 9 -5 5 -11 9 -27 9 -35z m19
-85 c0 -16 -2 -15 -8 5 -4 14 -8 34 -8 45 0 16 2 15 8 -5 4 -14 8 -34 8 -45z
m-5443 1 c141 -37 163 -49 188 -104 17 -38 22 -72 25 -170 4 -130 -3 -216 -18
-207 -5 3 -6 50 -3 104 6 108 -10 250 -34 291 -9 16 -12 18 -8 5 30 -88 0
-289 -46 -312 -13 -7 -18 -13 -11 -13 6 0 12 -6 12 -14 0 -7 17 -21 38 -30 45
-19 17 -15 -88 14 -96 26 -291 44 -401 36 -64 -4 -86 -2 -87 7 0 6 -6 85 -13
175 -7 89 -17 162 -22 162 -5 0 -7 -6 -4 -14 6 -16 21 -336 16 -336 -2 -1 -40
-7 -84 -15 -44 -8 -86 -15 -92 -15 -10 0 -13 29 -14 108 -1 59 -5 136 -9 172
-5 40 -6 -5 -3 -112 5 -158 4 -178 -10 -178 -9 0 -54 -13 -101 -29 -61 -20
-88 -25 -94 -17 -5 6 -33 72 -62 146 -56 142 -70 168 -70 132 0 -42 33 -142
47 -142 7 0 13 -8 13 -17 0 -30 30 -107 45 -119 12 -9 6 -17 -34 -42 -49 -30
-50 -30 -70 -11 -29 27 -42 80 -48 194 -11 209 33 255 319 330 162 43 266 55
453 51 143 -3 186 -8 270 -30z m4585 -90 c0 -2 -7 -6 -15 -10 -8 -3 -15 -1
-15 4 0 6 7 10 15 10 8 0 15 -2 15 -4z m367 -188 c-2 -18 -4 -4 -4 32 0 36 2
50 4 33 2 -18 2 -48 0 -65z m1082 -126 c53 -55 133 -150 146 -172 5 -8 -12 4
-37 27 -59 54 -100 65 -178 49 -67 -14 -153 -67 -200 -124 -106 -129 -167
-409 -141 -648 6 -60 14 -122 16 -139 5 -27 4 -27 -4 -7 -13 27 -21 29 -14 2
4 -13 0 -20 -9 -20 -8 0 -25 -9 -38 -20 -17 -15 -35 -19 -76 -17 l-53 2 -21
79 c-47 172 -46 460 2 614 79 259 265 421 482 422 l79 0 46 -48z m-6039 -96
c41 -9 79 -22 85 -27 7 -8 4 -10 -10 -6 -89 24 -188 25 -211 3 -14 -15 -28
-20 -46 -17 -4 0 -2 -11 4 -24 8 -19 14 -22 20 -13 5 9 8 9 8 1 0 -6 8 -14 18
-16 9 -3 -16 -5 -56 -6 -57 -1 -80 -5 -99 -21 -16 -13 -41 -20 -67 -20 -22 0
-48 -4 -56 -9 -9 -6 11 -8 55 -4 116 9 69 -4 -80 -22 -232 -28 -414 -85 -433
-134 -5 -13 -12 -17 -20 -12 -9 5 -14 36 -15 99 -2 84 0 92 23 117 33 35 66
52 159 80 66 19 110 27 276 49 72 10 373 -3 445 -18z m4353 -20 c54 -14 124
-38 156 -54 63 -31 150 -92 151 -105 0 -5 -13 1 -29 12 -39 28 -47 26 -25 -6
10 -16 17 -41 16 -56 -1 -16 4 -67 13 -115 39 -223 5 -359 -138 -557 -101
-140 -167 -201 -290 -266 l-69 -36 59 -11 c32 -6 109 -21 171 -33 62 -11 125
-19 140 -16 26 5 26 5 7 -10 -32 -25 -121 -62 -203 -85 -63 -18 -103 -22 -222
-23 -167 0 -227 13 -356 75 -79 38 -217 137 -227 162 -3 10 23 12 127 10 l131
-3 -40 29 c-136 100 -197 199 -214 347 l-8 70 -2 -68 c0 -41 5 -82 14 -104 8
-20 13 -38 11 -40 -8 -9 -68 153 -81 218 -7 38 -11 69 -9 69 2 0 10 -15 18
-32 14 -32 14 -30 15 54 1 47 -2 93 -5 102 -7 19 -34 22 -34 4 0 -7 -12 -24
-26 -39 -15 -16 -27 -42 -30 -65 -7 -62 -14 -85 -24 -79 -6 4 -8 11 -5 16 4 5
1 9 -4 9 -16 0 -13 -94 4 -167 8 -34 32 -101 55 -150 40 -87 30 -90 -15 -3
-48 93 -67 178 -72 316 -9 227 22 312 158 430 132 115 282 189 439 218 127 23
317 16 443 -18z m-2058 -16 c139 -44 247 -119 315 -220 22 -33 39 -60 37 -60
-3 0 -24 25 -47 56 -44 58 -61 67 -35 18 8 -16 15 -36 15 -45 0 -8 11 -53 25
-99 34 -115 31 -122 -9 -18 -55 145 -135 240 -246 292 -57 26 -77 30 -155 30
-73 1 -101 -4 -150 -23 -129 -52 -249 -222 -280 -396 -17 -94 -20 -215 -5
-215 6 0 10 27 10 61 0 118 77 284 167 358 52 44 147 89 215 103 70 15 161 0
223 -37 87 -50 179 -175 200 -270 5 -23 1 -18 -20 20 -36 68 -104 130 -166
150 -66 22 -168 16 -225 -13 -141 -72 -216 -290 -168 -492 36 -153 138 -258
281 -289 54 -11 104 -6 231 25 35 9 66 13 69 10 11 -11 -125 -134 -192 -174
-170 -101 -367 -133 -555 -91 -53 12 -230 94 -230 106 0 18 300 82 445 95 28
3 26 5 -30 33 -70 35 -149 110 -190 180 -16 27 -44 95 -62 150 -29 86 -38 88
-18 5 5 -21 4 -22 -4 -8 -6 9 -37 33 -69 52 -70 42 -83 57 -108 118 -10 27
-25 48 -31 48 -7 0 -16 12 -20 28 l-7 27 -7 -25 c-4 -15 -7 6 -8 57 -1 67 5
100 30 175 17 51 35 101 40 111 6 11 9 21 7 22 -7 7 -138 -97 -149 -117 -13
-24 -14 -34 -31 -183 -10 -94 -9 -130 5 -243 10 -74 15 -138 11 -143 -3 -5 -1
-9 4 -9 5 0 12 -12 15 -27 3 -16 9 -37 12 -48 6 -16 5 -17 -4 -5 -7 9 -11 11
-11 3 0 -7 7 -16 16 -21 9 -5 17 -20 17 -35 1 -14 4 -24 6 -21 2 2 18 -20 35
-49 18 -28 28 -54 24 -57 -4 -3 7 -24 24 -45 l31 -40 -42 40 c-50 47 -121 187
-144 285 -36 150 -41 192 -41 325 0 223 20 265 185 384 127 91 261 150 394
172 93 15 293 4 370 -21z m-598 4 c-3 -3 -12 -4 -19 -1 -8 3 -5 6 6 6 11 1 17
-2 13 -5z m4406 -54 c33 -11 87 -48 87 -60 0 -5 -12 -2 -27 6 -41 21 -63 17
-122 -18 -73 -45 -115 -114 -142 -238 -18 -82 -20 -118 -15 -260 2 -91 7 -183
10 -205 l6 -40 -14 35 c-14 33 -15 33 -15 9 -1 -15 -8 -30 -18 -33 -12 -5 -14
-9 -5 -18 21 -21 13 -37 -23 -52 -41 -17 -43 -30 -12 -65 l22 -26 -24 20 c-30
26 -64 95 -82 165 -22 85 -18 375 5 465 37 142 100 243 183 291 71 42 111 47
186 24z m47 -120 c21 -1 19 -4 -18 -22 -54 -26 -85 -78 -113 -188 -19 -73 -21
-103 -16 -244 5 -168 18 -230 65 -322 20 -40 83 -104 102 -104 5 0 7 -7 4 -15
-11 -28 -67 -18 -111 20 -113 97 -174 328 -152 580 9 112 36 195 78 246 30 36
84 61 116 54 11 -3 31 -5 45 -5z m154 -82 c51 -105 70 -206 70 -373 0 -114 -4
-156 -23 -225 -27 -104 -68 -184 -96 -188 -18 -2 -18 -1 -4 10 9 7 19 27 22
43 3 17 16 64 27 105 45 159 36 380 -23 559 -17 53 -32 106 -33 119 -2 44 26
21 60 -50z m-6404 47 c105 -16 186 -38 213 -57 16 -12 16 -15 -6 -38 -37 -40
-56 -102 -63 -202 -8 -118 13 -202 97 -378 32 -69 59 -133 59 -141 0 -20 -60
-13 -75 8 -8 10 -11 -7 -11 -62 0 -41 -4 -78 -7 -82 -4 -3 -36 -1 -71 5 -35 7
-104 12 -153 12 -86 0 -90 -1 -109 -27 -12 -16 -24 -43 -27 -60 l-6 -33 77 -1
c42 -1 91 -5 107 -9 17 -4 -8 -5 -55 -2 -131 7 -257 -14 -443 -75 -15 -5 -16
-2 -7 21 24 64 -2 190 -45 224 -24 19 -25 22 -14 73 15 68 7 155 -19 206 -20
38 -70 90 -108 111 -14 8 -15 14 -4 46 18 57 4 208 -28 279 -13 31 -23 59 -21
62 20 19 135 79 176 91 151 44 370 56 543 29z m1378 -44 c3 -10 -2 -11 -19 -6
-39 12 -48 27 -15 23 16 -2 31 -9 34 -17z m4918 -3 c19 -23 19 -23 -1 -7 -11
9 -27 19 -35 22 -13 5 -13 6 1 6 9 1 24 -9 35 -21z m-3249 -24 c-3 -3 -12 -4
-19 -1 -8 3 -5 6 6 6 11 1 17 -2 13 -5z m180 -10 c-3 -3 -12 -4 -19 -1 -8 3
-5 6 6 6 11 1 17 -2 13 -5z m-2737 -32 c23 -12 43 -35 60 -68 24 -46 25 -58
25 -214 l0 -165 58 -142 c83 -206 80 -252 -39 -486 -69 -136 -135 -235 -210
-316 -198 -214 -405 -313 -654 -314 -100 -1 -125 3 -189 26 -140 50 -284 151
-377 265 l-46 56 99 49 c54 27 105 55 114 63 26 23 29 17 29 -51 0 -37 -4 -65
-10 -65 -5 0 -10 10 -11 23 0 12 -3 16 -6 10 -7 -18 -81 -17 -85 0 -2 11 -16
8 -57 -10 -54 -24 -54 -24 -35 -44 17 -17 24 -18 53 -8 31 11 116 7 166 -6 11
-3 29 1 40 10 19 16 19 16 -3 5 -13 -7 -26 -9 -29 -6 -4 3 -6 43 -5 87 0 61 4
85 16 95 14 12 14 12 2 -2 -10 -12 -11 -22 -1 -50 16 -46 22 -50 45 -29 20 18
21 18 14 -1 -5 -15 -1 -14 15 6 25 30 28 48 4 29 -15 -12 -16 -12 -11 6 3 11
9 28 13 37 5 13 -1 18 -29 23 -20 4 -34 10 -31 14 2 4 50 -4 107 -17 90 -22
126 -25 294 -26 l191 -1 -14 -64 c-20 -98 -43 -171 -69 -223 -26 -52 -33 -58
-78 -69 l-31 -7 28 -1 c15 -1 41 6 56 14 35 18 70 107 102 257 l22 104 71 18
c166 43 285 130 326 241 24 65 42 265 21 235 -6 -8 -11 -27 -11 -42 0 -40 -16
-42 -30 -5 -7 17 -53 115 -102 216 -89 182 -108 241 -108 337 0 100 51 189
122 211 54 18 139 15 178 -5z m-1265 -56 c33 -34 45 -86 45 -207 l0 -106 -77
-6 c-77 -5 -176 -37 -231 -73 -24 -16 -26 -15 -38 1 -33 45 -45 225 -20 287
29 68 138 127 239 128 48 0 62 -4 82 -24z m3122 -41 c59 -41 47 -146 -20 -179
-54 -26 -96 -13 -120 36 -15 31 -16 43 -7 78 18 66 96 101 147 65z m803 -45
c14 -4 -8 -5 -50 -2 -41 2 -77 6 -79 8 -8 7 104 2 129 -6z m-1800 -26 c6 -14
10 -67 10 -118 0 -203 74 -448 174 -579 21 -27 36 -51 33 -53 -9 -10 -87 112
-127 200 -50 108 -75 125 -82 56 -2 -21 2 -46 9 -56 6 -9 10 -31 7 -50 -2 -19
0 -34 5 -34 15 0 18 -23 10 -85 l-7 -60 1 62 c1 34 -1 65 -6 69 -4 4 -7 -5 -7
-19 0 -19 -5 -27 -17 -27 -15 0 -14 -2 3 -16 10 -8 13 -13 7 -9 -8 4 -13 -1
-13 -12 0 -23 22 -73 33 -73 23 0 0 -20 -40 -35 -27 -10 -57 -23 -69 -30 -21
-13 -21 -12 -27 83 -9 129 -7 662 2 735 8 63 19 77 64 77 20 0 30 -7 37 -26z
m1896 -10 c18 -14 18 -14 -6 -3 -31 14 -36 19 -24 19 6 0 19 -7 30 -16z m45
-31 c13 -16 12 -17 -3 -4 -17 13 -22 21 -14 21 2 0 10 -8 17 -17z m-561 -153
c-9 -22 -10 -20 -5 15 2 22 6 58 7 80 1 31 3 28 5 -15 2 -31 -1 -67 -7 -80z
m593 7 c4 -75 13 -125 32 -178 14 -41 28 -81 31 -89 4 -13 -24 -15 -221 -12
-124 1 -249 -2 -278 -7 -29 -5 -53 -8 -54 -7 -2 1 6 25 17 53 24 63 60 235 61
295 2 57 6 32 14 -74 l7 -88 39 0 c29 0 39 4 39 16 0 13 3 14 13 5 8 -6 17 -8
20 -4 4 3 7 1 7 -5 0 -6 7 -9 15 -6 8 4 15 2 15 -2 0 -5 35 -7 77 -6 65 3 79
1 90 -14 7 -10 13 -12 13 -6 0 26 41 1 53 -32 14 -36 14 -11 1 74 -15 98 -18
204 -6 196 5 -3 12 -52 15 -109z m-4016 -97 c75 -33 117 -141 94 -238 l-13
-50 -61 -7 c-131 -14 -251 -65 -331 -141 -37 -36 -39 -37 -53 -18 -43 59 -59
217 -29 286 61 141 264 227 393 168z m5650 -273 c-14 -31 -36 -72 -50 -92 -32
-47 -126 -145 -139 -145 -6 0 23 35 63 78 51 53 85 100 108 150 19 39 37 70
39 67 2 -2 -7 -28 -21 -58z m-1659 36 l121 -6 36 -53 c55 -79 171 -185 258
-234 42 -24 77 -48 77 -52 0 -24 -56 -59 -128 -82 -340 -107 -770 -99 -1019
20 -62 29 -114 72 -113 93 1 3 24 24 52 46 46 36 187 195 213 240 9 15 32 19
140 25 190 10 229 11 363 3z m281 -57 c-2 -2 -13 8 -23 22 l-19 27 24 -22 c12
-12 21 -24 18 -27z m-4196 -57 c53 -14 77 -56 77 -135 0 -49 -5 -68 -28 -105
-55 -84 -129 -141 -257 -197 -98 -42 -132 -48 -155 -27 -27 25 -60 117 -60
168 1 141 170 279 375 306 6 0 27 -4 48 -10z m747 -169 c11 -8 7 -9 -15 -4
-37 8 -45 14 -19 14 10 0 26 -5 34 -10z m1568 -35 c218 -128 466 -145 707 -49
l60 23 78 -73 77 -73 35 -124 c20 -68 58 -169 85 -225 40 -84 60 -111 119
-167 140 -132 279 -171 466 -132 98 21 162 55 244 131 114 106 166 206 225
438 20 76 44 150 56 166 l20 28 49 -18 c93 -36 217 -53 341 -47 145 7 246 33
376 97 l100 50 137 -45 c104 -34 161 -47 233 -53 l96 -7 24 -59 c13 -33 24
-65 24 -71 0 -17 -112 -67 -255 -114 -174 -57 -199 -60 -277 -23 -96 45 -156
55 -309 50 -275 -10 -404 -94 -417 -268 -4 -61 -1 -76 23 -125 49 -101 147
-150 300 -150 152 0 267 49 409 173 50 44 65 52 98 52 42 0 232 40 313 66 94
31 230 86 280 114 114 64 229 121 215 107 -8 -8 -79 -50 -157 -92 l-143 -77 0
-46 c0 -26 4 -53 9 -61 5 -8 6 -21 3 -30 -5 -12 -8 -10 -13 9 l-7 25 -1 -26
c-1 -14 -6 -40 -12 -57 -6 -17 -9 -37 -6 -44 2 -7 9 6 16 28 9 34 15 42 34 40
16 -1 22 -7 22 -23 0 -13 -3 -23 -7 -23 -4 0 -5 -16 -3 -35 4 -25 0 -37 -13
-44 -9 -6 -14 -11 -9 -11 22 -1 254 158 282 193 14 18 25 27 25 21 0 -40 -242
-208 -425 -295 -170 -80 -517 -198 -760 -258 -411 -101 -745 -144 -1130 -145
-230 0 -283 3 -459 27 -307 42 -506 87 -762 173 -432 144 -701 293 -820 456
l-39 52 -3 242 -3 241 88 33 c83 31 275 99 281 100 2 0 38 -20 80 -45z m4100
-24 c10 -6 -8 -27 -65 -80 -214 -197 -453 -321 -800 -414 -75 -20 -93 -22 -93
-11 0 8 3 13 8 12 4 -1 32 4 62 12 42 10 50 15 35 20 -18 7 -16 9 10 15 17 4
45 11 64 16 54 13 49 2 -5 -15 -27 -8 -40 -15 -29 -15 22 1 126 37 110 39 -5
0 1 7 15 15 14 7 27 10 30 6 9 -14 40 3 31 17 -6 10 -16 9 -52 -3 -59 -21
-184 -52 -236 -58 -36 -4 -43 -2 -43 12 0 14 18 21 82 35 114 25 293 90 407
148 117 60 281 167 338 219 34 31 50 39 80 39 21 0 44 -4 51 -9z m-5726 -76
c132 0 -82 -53 -247 -61 -87 -4 -143 -1 -204 10 -90 16 -121 31 -80 40 58 12
283 22 379 17 58 -3 126 -6 152 -6z m689 -98 c55 -68 136 -226 145 -283 13
-83 -37 -249 -106 -350 -34 -51 -38 -62 -12 -43 15 13 16 12 3 -4 -8 -9 -16
-15 -19 -12 -3 3 -37 -26 -76 -64 -167 -161 -427 -292 -658 -332 -38 -6 -68
-15 -68 -20 0 -33 108 -17 281 41 188 62 426 222 535 358 58 72 118 195 142
289 l18 72 46 -47 c95 -99 208 -266 234 -345 29 -91 39 -81 19 18 -3 11 -2 71
2 133 l6 113 24 -23 c29 -27 56 -86 50 -110 -17 -64 97 -641 145 -731 7 -14
-1 -29 -41 -73 -57 -62 -105 -155 -122 -235 -16 -74 -6 -270 21 -399 47 -231
201 -538 369 -737 l60 -71 -31 -11 c-55 -19 -82 -14 -119 25 -118 125 -267 80
-268 -81 -1 -58 32 -122 97 -188 68 -69 103 -89 206 -115 61 -16 85 -18 114
-10 48 13 146 63 198 100 35 25 44 27 68 18 33 -12 84 -12 111 1 15 7 8 8 -23
4 -24 -3 -61 -1 -83 5 -38 10 -43 9 -87 -23 -56 -41 -133 -81 -184 -95 -29 -8
-52 -6 -106 8 -59 16 -172 64 -172 73 0 2 14 2 30 -1 21 -3 51 6 94 27 61 30
65 30 99 16 83 -35 197 -4 275 74 l47 48 30 -18 c74 -46 204 -28 355 48 101
51 101 52 160 184 8 19 22 35 32 37 9 2 52 -30 102 -77 47 -45 89 -81 94 -81
4 0 16 15 27 33 10 17 91 106 180 197 88 91 246 255 350 365 444 469 888 925
1107 1137 l235 228 101 35 c56 19 104 35 107 35 4 0 4 -24 0 -52 -3 -29 -15
-152 -26 -273 -21 -233 -35 -361 -43 -380 -2 -7 -41 -14 -98 -18 -101 -8 -357
-35 -398 -44 -24 -5 -24 -5 11 -19 27 -11 48 -34 85 -90 42 -64 50 -72 61 -59
9 13 7 24 -9 51 -11 19 -24 37 -29 40 -5 3 -9 12 -9 21 0 9 -7 21 -17 28 -13
10 11 14 128 19 79 4 172 11 207 15 61 7 63 7 58 -13 -3 -12 -6 -38 -6 -58 l0
-38 -78 0 c-84 0 -171 -21 -213 -51 -49 -35 -100 -133 -123 -239 -4 -21 -30
-37 -153 -95 -180 -85 -352 -178 -594 -323 -310 -184 -689 -407 -786 -461
-107 -60 -157 -112 -172 -179 -18 -77 -31 -514 -31 -1074 0 -458 -2 -528 -15
-528 -26 0 -408 50 -500 65 -139 24 -344 65 -405 82 -205 56 -404 137 -445
183 -23 25 -24 68 -46 1715 -12 976 -21 1371 -30 1380 -4 3 -10 -85 -14 -197
-4 -112 -13 -253 -19 -313 l-11 -111 -286 151 c-157 82 -335 179 -395 214
-278 163 -512 346 -676 530 -61 67 -154 198 -147 205 2 3 33 -2 69 -11 99 -23
263 -14 364 21 222 76 408 260 507 500 35 84 69 233 69 299 0 40 16 31 71 -36z
m4886 -289 c-2 -29 -3 -6 -3 52 0 58 1 81 3 53 2 -29 2 -77 0 -105z m-1058 96
c38 -8 77 -22 87 -30 17 -13 17 -13 -9 -4 -116 41 -249 50 -374 24 -124 -25
-199 -75 -223 -149 l-10 -30 5 33 c11 72 81 127 203 156 78 19 238 19 321 0z
m-1051 -13 c56 -10 105 -20 108 -23 7 -8 -65 -126 -113 -183 -104 -126 -288
-185 -430 -139 -75 24 -173 101 -221 174 -23 34 -42 66 -42 70 0 4 29 15 64
24 35 10 87 29 117 43 30 14 83 31 119 38 97 19 279 17 398 -4z m3437 -122
c138 -17 255 -32 260 -35 15 -6 -145 5 -280 21 -66 8 -145 16 -175 19 -144 14
-265 29 -270 33 -10 10 222 -9 465 -38z m323 -46 c-10 -2 -26 -2 -35 0 -10 3
-2 5 17 5 19 0 27 -2 18 -5z m155 -20 c-7 -2 -19 -2 -25 0 -7 3 -2 5 12 5 14
0 19 -2 13 -5z m150 -20 c-7 -2 -19 -2 -25 0 -7 3 -2 5 12 5 14 0 19 -2 13 -5z
m-1203 -88 c471 -62 1170 -177 1170 -195 0 -4 -16 -83 -36 -176 -19 -93 -51
-243 -69 -334 -25 -121 -44 -184 -70 -237 -19 -39 -35 -81 -35 -92 0 -12 -5
-21 -10 -21 -6 0 -31 -19 -55 -41 -58 -53 -80 -121 -72 -222 4 -62 2 -71 -19
-97 -73 -86 -87 -223 -35 -330 17 -35 17 -37 -33 -228 l-50 -193 -51 7 c-27 3
-167 26 -310 50 -143 24 -415 69 -605 98 -190 30 -390 62 -446 72 l-100 16 64
232 c35 127 83 301 107 386 23 85 83 304 133 485 50 182 120 440 157 575 37
134 71 252 76 262 11 20 -7 21 289 -17z m-731 -270 c1 -114 0 -118 -15 -95 -9
14 -61 70 -116 126 l-99 100 68 47 c37 26 86 62 108 81 l40 34 6 -86 c4 -48 7
-141 8 -207z m-264 96 c-6 -5 -63 -37 -127 -71 -133 -69 -154 -88 -87 -74 55
11 162 11 213 1 75 -16 192 -151 217 -252 7 -27 17 -54 22 -60 6 -6 7 -1 2 13
-4 14 -2 22 5 22 7 0 9 7 6 16 -3 8 -2 13 3 10 5 -4 12 -27 16 -54 5 -37 -3
-82 -39 -222 -42 -167 -169 -635 -279 -1030 -36 -132 -52 -208 -55 -265 -3
-75 -1 -83 27 -127 17 -27 53 -63 85 -84 65 -43 60 -22 76 -329 5 -115 15
-277 20 -360 6 -82 17 -287 26 -455 l16 -304 -34 -28 c-78 -65 -301 -157 -533
-218 -235 -63 -775 -138 -1155 -161 -323 -20 -1000 0 -1032 30 -7 6 -32 174
-42 281 -3 30 -11 120 -18 200 -8 94 -13 311 -13 615 l0 470 25 50 c32 65 74
95 312 227 220 121 643 342 676 352 l22 7 0 -275 c0 -252 14 -597 26 -654 7
-36 60 -52 215 -64 229 -19 755 17 883 60 27 10 57 28 67 42 28 39 41 210 38
530 l-2 285 69 70 c90 90 106 125 115 250 12 168 -21 288 -101 370 l-40 40 19
155 c11 85 31 277 45 425 25 255 45 438 49 441 1 1 48 24 104 52 56 27 112 57
124 66 25 17 50 22 34 7z m-3585 -158 c67 -34 72 -42 242 -398 289 -605 376
-759 736 -1314 l80 -125 -28 -41 c-16 -23 -36 -47 -45 -55 -19 -15 -10 -23
-165 148 -58 63 -70 72 -101 72 -19 0 -52 -9 -74 -20 -44 -23 -46 -23 -43 -12
2 12 -14 42 -23 42 -5 0 -3 -13 6 -29 8 -17 12 -36 9 -43 -3 -7 -34 -38 -68
-68 -35 -30 -70 -66 -79 -79 l-15 -25 -21 35 c-25 40 -25 56 -6 128 51 193 42
584 -20 821 -22 86 -94 234 -143 297 -78 98 -182 155 -320 174 -43 6 -78 12
-80 14 -8 8 -54 197 -71 296 -22 122 -51 299 -51 309 0 5 166 -70 280 -127z
m-1085 86 c-59 -61 -163 -142 -248 -194 -41 -25 -78 -45 -82 -45 -5 0 31 24
78 54 104 65 188 130 242 185 21 23 41 41 44 41 3 0 -13 -18 -34 -41z m4726
14 c13 -16 12 -17 -3 -4 -10 7 -18 15 -18 17 0 8 8 3 21 -13z m181 -178 c6
-11 -18 10 -53 46 -102 105 -120 131 -36 49 43 -41 83 -84 89 -95z m-3464 -36
c219 -67 462 -126 613 -149 42 -7 82 -16 89 -20 29 -18 -170 -309 -266 -388
-50 -42 -84 -41 -143 2 -62 46 -185 173 -318 327 -117 136 -245 316 -216 304
10 -4 118 -38 241 -76z m2437 -9 c-3 -5 -12 -10 -19 -10 -7 0 -44 -27 -82 -60
-81 -71 -136 -108 -384 -263 -215 -134 -407 -241 -473 -263 -62 -21 -88 -8
-155 81 -49 66 -172 294 -172 320 0 8 43 14 142 19 161 8 310 25 537 62 149
24 493 94 556 113 41 13 57 13 50 1z m1052 -77 c-2 -16 -4 -3 -4 27 0 30 2 43
4 28 2 -16 2 -40 0 -55z m-3579 -115 c22 -48 330 -365 405 -417 67 -46 85 -43
185 32 l53 40 35 -34 c58 -55 63 -73 47 -152 -18 -87 -101 -298 -157 -400
l-42 -78 -34 53 c-97 154 -193 323 -280 493 -95 185 -240 487 -240 499 0 16
11 2 28 -36z m2232 -85 c-63 -65 -207 -212 -320 -328 -402 -411 -564 -575
-570 -575 -7 0 -63 137 -89 215 -10 33 -27 110 -37 172 -21 131 -18 141 69
197 l52 34 40 -38 c77 -72 97 -79 165 -60 71 20 440 243 510 308 11 10 68 47
126 82 59 35 118 73 133 86 58 52 30 18 -79 -93z m-1270 -4 c47 -6 120 -9 163
-7 60 2 80 -1 87 -12 14 -22 12 -36 -2 -18 -10 12 -44 17 -163 22 -82 3 -161
8 -175 11 -22 5 -30 -2 -62 -52 -21 -32 -47 -69 -59 -83 l-20 -25 12 25 c7 14
32 56 56 93 34 53 48 67 61 62 9 -3 55 -11 102 -16z m296 -136 c-5 -5 -36 62
-36 76 1 3 10 -11 21 -32 11 -22 18 -41 15 -44z m4360 21 c51 -24 122 -100
157 -169 26 -50 31 -71 31 -125 -1 -36 -7 -85 -14 -110 l-12 -45 -17 25 c-9
13 -47 56 -86 95 -87 88 -159 125 -261 134 l-72 6 26 64 c53 134 139 177 248
125z m-4898 -79 c-6 -14 -13 -23 -15 -21 -5 5 15 46 22 46 3 0 -1 -11 -7 -25z
m-1355 -77 c-53 -58 -74 -137 -75 -278 l0 -115 -10 85 c-11 93 -1 160 33 240
18 41 55 90 67 90 3 0 -4 -10 -15 -22z m6163 -114 c101 -51 185 -144 235 -261
29 -67 36 -175 15 -244 -22 -79 -76 -142 -76 -91 0 27 -54 127 -94 176 -48 59
-160 134 -226 151 -30 8 -78 15 -106 15 -45 0 -52 3 -62 25 -16 35 -15 118 2
159 15 37 69 82 113 96 49 16 140 4 199 -26z m-5816 16 c31 -17 109 -145 136
-222 33 -98 81 -281 89 -343 l6 -50 -36 50 c-55 76 -98 152 -135 240 -38 92
-90 243 -90 261 0 17 -20 68 -25 63 -7 -8 18 -105 83 -314 23 -76 84 -191 147
-280 l58 -80 -7 -125 c-6 -122 -35 -323 -49 -336 -14 -15 -67 20 -111 74 -54
67 -143 243 -181 357 -14 44 -42 143 -63 220 -32 123 -36 155 -37 260 0 139
16 185 75 217 38 20 110 24 140 8z m1108 -78 c19 -78 15 -101 -31 -172 -25
-39 -47 -65 -50 -58 -2 7 -7 -3 -12 -22 -7 -37 -61 -160 -69 -160 -3 0 -1 12
4 28 16 52 122 367 131 391 10 25 20 22 27 -7z m393 -307 c21 -72 39 -144 39
-160 0 -21 -12 -44 -41 -75 l-41 -45 36 46 c20 25 36 55 36 67 0 11 -16 69
-36 129 -44 136 -64 218 -63 263 1 28 4 22 16 -30 8 -36 32 -124 54 -195z
m-101 205 c-8 -5 -19 -10 -25 -10 -5 0 -3 5 5 10 8 5 20 10 25 10 6 0 3 -5 -5
-10z m1623 -15 c156 -41 267 -169 267 -309 0 -124 -63 -238 -160 -289 -50 -26
-62 -29 -135 -25 -60 4 -92 11 -130 30 -62 32 -130 103 -158 166 -26 59 -34
181 -17 252 21 86 102 162 192 179 64 13 78 12 141 -4z m-1886 -37 c-3 -8 -6
-5 -6 6 -1 11 2 17 5 13 3 -3 4 -12 1 -19z m4571 -118 c76 -36 168 -124 202
-195 31 -66 32 -161 3 -225 -29 -66 -96 -145 -147 -175 -40 -24 -184 -70 -192
-62 -2 2 12 50 31 106 19 57 35 111 35 121 0 10 -19 26 -52 41 -68 31 -136 93
-159 144 -34 75 -16 202 34 244 58 48 144 48 245 1z m-3092 -215 c20 -137 64
-209 174 -282 99 -67 217 -84 331 -48 15 5 19 1 19 -17 0 -16 -3 -19 -9 -10
-6 10 -18 11 -52 3 -99 -23 -218 1 -300 61 -24 18 -48 33 -54 33 -14 0 -90
115 -99 148 -6 27 -7 27 -91 27 l-85 0 0 45 c0 43 -1 44 -24 34 -25 -12 -26
-49 0 -49 8 0 14 -4 14 -10 0 -5 -12 -10 -27 -10 -16 0 -45 -3 -65 -6 l-38 -7
0 -93 0 -94 160 0 160 0 0 57 0 57 28 -45 c94 -148 247 -225 397 -201 33 6 68
14 79 18 18 7 18 -5 13 -362 -2 -203 -9 -382 -14 -399 -14 -46 -60 -62 -243
-87 -140 -19 -213 -22 -485 -22 -367 -1 -377 1 -388 71 -13 74 -29 702 -22
808 l7 107 57 26 c32 15 81 28 114 30 l57 4 0 54 c0 49 2 55 30 69 16 8 36 15
45 15 9 0 14 4 11 9 -7 11 24 31 158 101 54 28 105 50 114 48 12 -2 19 -24 28
-83z m-2223 33 c23 -165 15 -301 -24 -446 -51 -190 -109 -268 -205 -274 -97
-6 -123 4 -185 70 -73 77 -178 235 -225 337 -20 44 -53 132 -75 195 l-39 115
28 5 c15 3 47 1 71 -5 l43 -11 42 -119 c76 -217 214 -447 309 -516 42 -31 73
-37 75 -16 1 6 15 90 32 185 31 178 50 347 50 439 0 58 21 83 71 83 24 0 27
-5 32 -42z m1817 -153 c0 -5 -69 -41 -108 -56 -43 -16 -12 9 44 36 51 24 64
28 64 20z m1117 -47 c-14 -24 -45 -61 -68 -83 l-43 -40 47 52 c26 29 54 68 64
87 9 20 19 34 21 31 2 -2 -7 -23 -21 -47z m-1152 -29 c-4 -6 -69 -19 -112 -22
-12 -1 -20 -4 -17 -6 4 -5 -27 -30 -38 -31 -5 0 -8 12 -8 27 0 14 2 24 5 21 3
-3 31 1 63 9 31 8 62 15 69 17 7 1 16 5 20 9 8 8 24 -13 18 -24z m-217 -71
c-2 -13 -8 -23 -15 -23 -6 0 -15 -3 -19 -7 -12 -13 -26 -9 -18 5 4 6 -5 0 -20
-15 -16 -15 -32 -25 -36 -23 -11 7 -60 -16 -60 -27 0 -4 -3 -7 -7 -6 -5 2 -68
-31 -141 -71 -73 -40 -135 -72 -137 -69 -4 4 230 144 340 203 39 20 74 41 80
46 18 17 36 10 33 -13z m-964 -397 c-6 -6 -162 148 -176 174 -6 11 33 -23 86
-74 52 -52 93 -97 90 -100z m-374 136 c0 -2 -12 -14 -27 -28 l-28 -24 24 28
c23 25 31 32 31 24z m3777 -52 c92 -18 106 -18 98 -5 -3 6 -2 10 4 10 5 0 12
-6 14 -12 4 -10 8 -10 15 1 8 11 14 9 31 -8 49 -49 -4 -61 -163 -37 -103 16
-123 24 -113 50 8 20 16 20 114 1z m-3919 -121 c38 -18 40 -33 10 -62 -55 -50
-131 -56 -172 -13 -16 16 -26 35 -24 42 4 12 98 46 134 48 11 1 35 -6 52 -15z
m-384 -49 c38 -8 72 -17 75 -21 3 -3 -13 -23 -35 -44 -65 -61 -145 -75 -222
-40 -40 18 -43 22 -40 52 3 30 8 35 53 50 62 21 82 21 169 3z m3930 -45 c36
-13 353 -57 474 -66 56 -3 102 -10 102 -14 0 -12 -66 -67 -100 -85 -86 -44
-205 -38 -314 17 -141 70 -271 190 -162 148z m-3093 -1490 c11 -102 22 -193
25 -202 4 -15 -1 -18 -30 -18 -20 0 -36 5 -36 11 0 7 10 9 26 5 26 -7 26 -6
20 26 -4 18 -9 68 -13 110 -3 43 -10 75 -14 72 -5 -3 -7 -15 -4 -27 3 -12 7
-50 9 -84 2 -34 7 -67 11 -74 5 -7 3 -10 -6 -7 -25 8 -31 89 -23 268 5 96 10
159 11 140 2 -19 13 -118 24 -220z m2289 -705 c144 -34 237 -84 274 -147 29
-51 49 -122 41 -147 -5 -17 -10 -17 -83 -4 -106 20 -329 18 -423 -2 -83 -19
-236 -90 -289 -135 -33 -29 -31 -28 40 9 141 75 262 109 415 117 155 8 296
-24 312 -72 2 -5 -51 -9 -130 -9 -191 -1 -366 -45 -600 -152 -145 -66 -158
-65 -193 13 -37 85 -33 94 31 68 17 -7 16 -5 -4 17 -13 13 -37 53 -54 89 -27
56 -31 77 -31 152 -1 102 9 118 101 163 100 49 207 66 378 60 83 -3 179 -12
215 -20z m-2742 -44 c93 -37 134 -66 152 -112 11 -26 10 -46 -4 -128 -10 -53
-24 -106 -32 -118 -22 -35 4 -53 77 -53 l59 0 -1 -37 c0 -21 -6 -54 -13 -73
-10 -27 -18 -34 -35 -32 -12 1 -86 32 -164 68 -214 99 -388 143 -569 145 -132
2 -141 20 -26 53 77 22 214 21 307 -4 41 -10 79 -16 84 -13 6 3 7 1 3 -5 -9
-14 3 -15 23 -3 11 7 4 12 -25 20 -21 5 -66 17 -99 26 -80 21 -214 29 -303 18
-40 -5 -74 -8 -76 -6 -6 7 20 95 39 133 35 70 82 104 195 142 45 15 79 18 190
15 124 -4 142 -7 218 -36z m851 -149 c18 -33 24 -164 11 -226 -6 -31 -13 -56
-15 -54 -3 2 -1 37 4 78 9 83 -5 189 -26 197 -18 7 -17 23 2 23 8 0 19 -8 24
-18z m778 -98 c-8 -28 -8 -37 2 -44 10 -6 12 -26 9 -76 -7 -85 6 -154 34 -184
13 -14 16 -21 7 -18 -45 14 -94 237 -70 319 6 21 16 39 20 39 5 0 4 -16 -2
-36z m-1966 -165 c57 -12 145 -36 194 -54 101 -37 328 -145 320 -153 -12 -13
-116 23 -146 50 -20 18 -39 28 -50 25 -11 -3 -16 -1 -13 4 6 10 -36 3 -66 -11
-17 -7 -18 -7 -72 4 -21 5 -38 13 -38 18 0 5 -8 7 -18 4 -10 -4 -39 0 -65 8
-26 8 -47 11 -47 7 0 -4 24 -24 53 -44 28 -20 70 -55 92 -78 31 -33 24 -29
-34 19 -40 34 -110 79 -155 101 -83 40 -254 101 -284 101 -15 0 -15 2 -2 10
28 18 221 11 331 -11z m3343 7 c35 -8 68 -24 83 -39 l25 -24 -114 -6 c-142 -7
-248 -35 -355 -93 -89 -48 -114 -54 -36 -8 47 27 47 27 23 38 -14 6 -31 18
-37 27 -8 11 -21 15 -34 12 -12 -4 -25 0 -29 8 -7 10 -24 6 -82 -23 -40 -20
-84 -39 -98 -43 l-25 -6 23 20 c44 38 304 128 417 144 68 9 184 6 239 -7z
m-3604 -57 c93 -25 201 -75 276 -127 149 -102 367 -384 328 -422 -5 -5 -67
-21 -139 -35 -160 -34 -413 -44 -586 -25 -207 23 -397 80 -523 158 -37 23 -38
25 -32 65 4 22 25 76 48 119 64 124 176 210 343 264 90 30 186 31 285 3z
m3752 -64 c160 -33 322 -144 387 -264 40 -75 55 -148 36 -177 -28 -44 -173
-104 -350 -145 -130 -30 -444 -37 -608 -15 -176 25 -367 78 -367 103 0 3 14
31 31 62 115 204 321 371 534 432 77 22 239 24 337 4z m-662 -128 c0 -2 -10
-12 -22 -23 l-23 -19 19 23 c18 21 26 27 26 19z m-2555 -116 c-3 -2 -6 -2 -7
0 -2 2 -21 24 -43 49 l-40 45 47 -44 c26 -25 45 -47 43 -50z m57 -66 c11 -21
8 -18 -32 30 -24 29 -24 29 -2 10 13 -11 28 -29 34 -40z m957 -85 c1 -60 1
-110 -1 -110 -2 0 -50 -16 -108 -35 -144 -49 -439 -123 -620 -155 -36 -7 -71
-14 -78 -16 -11 -3 -65 101 -78 151 -6 24 8 29 241 86 200 50 470 130 561 167
38 16 72 27 75 25 4 -1 7 -52 8 -113z m751 10 c74 -31 355 -120 458 -145 30
-7 58 -17 64 -23 7 -7 -5 -39 -35 -100 -25 -50 -47 -88 -50 -86 -2 3 -65 21
-138 40 -196 52 -374 111 -392 132 -17 19 -22 60 -19 161 2 73 -7 71 112 21z
m-1220 21 c-18 -11 -133 -41 -151 -40 -14 1 136 47 156 48 6 0 3 -4 -5 -8z
m-203 -57 c-3 -3 -12 -4 -19 -1 -8 3 -5 6 6 6 11 1 17 -2 13 -5z m1798 -14
c25 -11 -1 -11 -35 0 -20 6 -21 8 -5 8 11 0 29 -3 40 -8z m-1892 -7 c-7 -2
-19 -2 -25 0 -7 3 -2 5 12 5 14 0 19 -2 13 -5z m837 -157 c0 -2 -8 -10 -17
-17 -16 -13 -17 -12 -4 4 13 16 21 21 21 13z m-2259 -154 c37 -17 106 -45 155
-61 49 -17 80 -30 68 -30 -28 -1 -145 40 -223 77 -35 18 -67 30 -71 27 -4 -2
-16 2 -26 10 -36 26 25 12 97 -23z m276 -98 c-3 -3 -12 -4 -19 -1 -8 3 -5 6 6
6 11 1 17 -2 13 -5z"/>
<path d="M6400 13312 c8 -5 26 -13 40 -16 17 -5 20 -4 10 2 -8 5 -26 13 -40
16 -17 5 -20 4 -10 -2z"/>
<path d="M6490 13278 c72 -34 154 -68 157 -65 4 5 -123 62 -157 71 l-25 6 25
-12z"/>
<path d="M6885 13083 c22 -21 135 -97 135 -90 0 2 -26 22 -57 44 -64 44 -94
62 -78 46z"/>
<path d="M7254 12785 c8 -8 18 -15 22 -15 3 0 1 7 -6 15 -7 8 -17 15 -22 15
-5 0 -3 -7 6 -15z"/>
<path d="M7290 12756 c0 -2 8 -10 18 -17 15 -13 16 -12 3 4 -13 16 -21 21 -21
13z"/>
<path d="M5313 13243 c15 -2 39 -2 55 0 15 2 2 4 -28 4 -30 0 -43 -2 -27 -4z"/>
<path d="M5458 13233 c12 -2 32 -2 45 0 12 2 2 4 -23 4 -25 0 -35 -2 -22 -4z"/>
<path d="M5578 13223 c6 -2 18 -2 25 0 6 3 1 5 -13 5 -14 0 -19 -2 -12 -5z"/>
<path d="M5378 13033 c6 -2 18 -2 25 0 6 3 1 5 -13 5 -14 0 -19 -2 -12 -5z"/>
<path d="M5563 13013 c9 -2 23 -2 30 0 6 3 -1 5 -18 5 -16 0 -22 -2 -12 -5z"/>
<path d="M6535 11670 c3 -5 8 -10 11 -10 2 0 4 5 4 10 0 6 -5 10 -11 10 -5 0
-7 -4 -4 -10z"/>
<path d="M3994 11465 c-109 -30 -232 -125 -306 -239 -37 -57 -52 -126 -28
-126 6 0 45 24 88 54 99 69 143 91 233 116 105 29 216 27 294 -5 81 -34 99
-33 91 3 -11 43 -67 119 -114 153 -79 57 -160 70 -258 44z"/>
<path d="M5828 11467 c-76 -22 -161 -95 -194 -169 -30 -66 -16 -72 78 -37 81
30 86 31 223 26 183 -6 246 -27 421 -144 83 -55 114 -62 114 -26 -1 71 -129
215 -245 274 -147 76 -295 104 -397 76z"/>
<path d="M6270 11396 c0 -2 8 -10 18 -17 15 -13 16 -12 3 4 -13 16 -21 21 -21
13z"/>
<path d="M6477 11383 c-4 -3 -7 -15 -7 -25 0 -11 -4 -16 -10 -13 -5 3 -10 1
-10 -4 0 -29 35 -3 36 27 1 24 0 25 -9 15z"/>
<path d="M6330 11345 c13 -14 26 -25 28 -25 3 0 -5 11 -18 25 -13 14 -26 25
-28 25 -3 0 5 -11 18 -25z"/>
<path d="M5894 11273 c10 -11 56 -11 50 -1 -3 4 -17 8 -31 8 -15 0 -23 -3 -19
-7z"/>
<path d="M4068 11263 c18 -2 45 -2 60 0 15 2 0 4 -33 4 -33 0 -45 -2 -27 -4z"/>
<path d="M5765 11260 c-13 -6 -15 -9 -5 -9 8 0 22 4 30 9 18 12 2 12 -25 0z"/>
<path d="M5848 11263 c7 -3 16 -2 19 1 4 3 -2 6 -13 5 -11 0 -14 -3 -6 -6z"/>
<path d="M3939 11237 c-116 -40 -258 -139 -245 -172 3 -9 2 -13 -4 -10 -6 3
-10 0 -10 -8 0 -12 10 -14 43 -11 l42 4 -45 -15 c-25 -9 -53 -17 -63 -18 -9
-2 -23 -9 -29 -15 -15 -15 -13 -15 47 4 63 19 205 37 312 38 45 1 84 4 88 8 4
3 -3 16 -14 27 -19 19 -25 19 -22 -1 2 -16 -15 -7 -27 13 -10 15 -11 24 -3 32
6 6 11 16 11 22 0 5 -5 3 -10 -5 -8 -13 -10 -12 -11 5 -1 11 -1 24 0 28 1 5 3
25 5 44 1 19 9 39 17 44 26 16 -12 10 -82 -14z m-102 -71 c0 -9 -7 -12 -16 -8
-12 4 -11 0 4 -18 l20 -23 -22 13 c-19 12 -25 11 -57 -14 -37 -28 -48 -27 -19
2 12 12 77 57 89 62 0 0 1 -6 1 -14z"/>
<path d="M4016 11162 c-3 -5 1 -9 9 -9 8 0 12 4 9 9 -3 4 -7 8 -9 8 -2 0 -6
-4 -9 -8z"/>
<path d="M5740 11050 c-34 -7 -34 -7 -5 -8 17 -1 48 3 70 7 l40 9 -35 0 c-19
-1 -51 -4 -70 -8z"/>
<path d="M5896 11052 c-2 -4 14 -6 37 -4 68 5 76 10 20 11 -28 0 -54 -2 -57
-7z"/>
<path d="M4136 11021 c5 -5 92 -30 109 -31 5 0 2 7 -7 16 -9 10 -35 17 -62 19
-25 1 -43 -1 -40 -4z"/>
<path d="M5638 11023 c6 -2 18 -2 25 0 6 3 1 5 -13 5 -14 0 -19 -2 -12 -5z"/>
<path d="M5530 10992 c-102 -44 -210 -111 -270 -167 -30 -29 -73 -64 -95 -79
-32 -21 -36 -26 -18 -26 12 0 28 8 35 18 35 49 200 167 312 222 127 64 142 77
36 32z"/>
<path d="M4374 10935 c21 -16 32 -13 21 4 -3 6 -14 11 -23 11 -15 -1 -15 -2 2
-15z"/>
<path d="M4384 10892 c3 -5 33 -26 68 -47 35 -21 91 -60 126 -87 34 -27 62
-44 62 -39 0 14 -109 104 -163 135 -49 29 -100 50 -93 38z"/>
<path d="M5360 10849 l-25 -20 33 16 c17 8 32 18 32 20 0 10 -16 4 -40 -16z"/>
<path d="M4610 10821 c0 -6 4 -13 10 -16 6 -3 7 1 4 9 -7 18 -14 21 -14 7z"/>
<path d="M5306 10815 c-11 -8 -15 -15 -9 -15 6 0 16 7 23 15 16 19 11 19 -14
0z"/>
<path d="M4645 10760 c6 -33 15 -40 45 -40 26 0 29 4 28 25 -1 13 -8 27 -16
30 -7 2 -10 0 -7 -5 7 -11 -23 -9 -42 3 -8 5 -11 1 -8 -13z"/>
<path d="M5103 10754 c3 -5 -6 -15 -20 -21 -22 -11 -24 -10 -18 5 4 12 3 14
-4 7 -6 -6 -12 -22 -13 -35 -3 -21 1 -25 25 -25 15 1 27 -3 27 -8 0 -4 5 -5
10 -2 14 9 13 72 -2 81 -6 4 -9 3 -5 -2z"/>
<path d="M4750 10680 c-13 -8 -12 -10 3 -10 9 0 17 5 17 10 0 12 -1 12 -20 0z"/>
<path d="M4793 10683 c9 -2 23 -2 30 0 6 3 -1 5 -18 5 -16 0 -22 -2 -12 -5z"/>
<path d="M4985 10675 c39 -7 72 -11 73 -9 8 6 -75 24 -108 23 -24 -1 -14 -5
35 -14z"/>
<path d="M1633 11295 c0 -44 2 -61 4 -37 2 23 2 59 0 80 -2 20 -4 1 -4 -43z"/>
<path d="M1800 11155 l-5 -130 -85 4 c-103 3 -102 -7 1 -16 86 -8 100 -8 154
-3 l40 3 -45 6 -45 6 -5 130 -6 130 -4 -130z"/>
<path d="M1643 11105 c0 -38 2 -53 4 -32 2 20 2 52 0 70 -2 17 -4 1 -4 -38z"/>
<path d="M1948 11003 c7 -3 16 -2 19 1 4 3 -2 6 -13 5 -11 0 -14 -3 -6 -6z"/>
<path d="M1650 10842 c0 -36 2 -39 30 -40 35 -1 39 11 10 31 -11 8 -17 17 -13
20 3 4 0 7 -8 7 -11 0 -11 2 1 10 13 8 12 10 -2 10 -14 0 -18 -8 -18 -38z m45
-22 c3 -5 2 -10 -4 -10 -5 0 -13 5 -16 10 -3 6 -2 10 4 10 5 0 13 -4 16 -10z"/>
<path d="M1017 10775 c-15 -11 -17 -27 -16 -106 2 -52 4 -87 6 -78 2 8 35 31
74 50 81 39 79 48 -3 20 -49 -17 -57 -17 -62 -4 -9 22 -7 30 4 13 15 -24 21
-5 18 58 -3 56 -4 60 -21 47z"/>
<path d="M5793 10835 c-168 -47 -288 -166 -346 -344 -30 -90 -47 -255 -30
-285 8 -14 11 3 15 65 13 195 131 361 306 430 44 18 76 23 142 23 193 -2 349
-111 441 -307 28 -61 53 -185 42 -212 -2 -8 -1 -20 3 -26 12 -20 23 19 23 86
1 132 -54 288 -143 404 -53 69 -95 102 -179 142 -79 37 -194 47 -274 24z"/>
<path d="M5780 10592 c-97 -37 -168 -98 -210 -179 -69 -134 -67 -341 4 -481
70 -139 241 -215 371 -165 161 62 252 196 262 388 9 155 -28 273 -110 358 -83
85 -216 118 -317 79z m42 -142 c28 -29 30 -35 26 -87 -4 -49 -10 -61 -41 -90
-82 -75 -182 -11 -164 104 15 91 118 133 179 73z"/>
<path d="M6362 10130 c0 -14 2 -19 5 -12 2 6 2 18 0 25 -3 6 -5 1 -5 -13z"/>
<path d="M6332 10023 c-6 -20 -10 -39 -8 -41 2 -2 9 13 16 33 7 20 10 38 8 41
-3 2 -10 -13 -16 -33z"/>
<path d="M6296 9933 c-6 -14 -5 -15 5 -6 7 7 10 15 7 18 -3 3 -9 -2 -12 -12z"/>
<path d="M3391 10414 c0 -11 3 -14 6 -6 3 7 2 16 -1 19 -3 4 -6 -2 -5 -13z"/>
<path d="M7652 10144 c10 -10 20 -16 22 -13 3 3 -5 11 -17 18 -21 13 -21 12
-5 -5z"/>
<path d="M7621 10124 c0 -11 3 -14 6 -6 3 7 2 16 -1 19 -3 4 -6 -2 -5 -13z"/>
<path d="M7632 10065 c0 -16 2 -22 5 -12 2 9 2 23 0 30 -3 6 -5 -1 -5 -18z"/>
<path d="M8004 9821 c4 -5 0 -11 -6 -14 -7 -2 0 -8 15 -12 35 -9 46 1 21 20
-22 16 -38 20 -30 6z"/>
<path d="M8233 10115 c0 -27 2 -38 4 -22 2 15 2 37 0 50 -2 12 -4 0 -4 -28z"/>
<path d="M8211 9994 c0 -11 3 -14 6 -6 3 7 2 16 -1 19 -3 4 -6 -2 -5 -13z"/>
<path d="M1641 10553 c2 -24 2 -25 6 -5 4 20 9 22 76 21 74 -1 193 -15 146
-18 -23 -1 -27 -6 -31 -37 -2 -19 0 -38 5 -41 14 -9 -15 -23 -47 -23 -51 0
-24 -7 55 -14 l76 -7 17 62 c9 34 15 63 13 65 -11 11 -123 24 -213 24 l-104 0
1 -27z"/>
<path d="M1548 10563 c7 -3 16 -2 19 1 4 3 -2 6 -13 5 -11 0 -14 -3 -6 -6z"/>
<path d="M1483 10553 c9 -2 23 -2 30 0 6 3 -1 5 -18 5 -16 0 -22 -2 -12 -5z"/>
<path d="M1418 10543 c6 -2 18 -2 25 0 6 3 1 5 -13 5 -14 0 -19 -2 -12 -5z"/>
<path d="M1368 10533 c6 -2 18 -2 25 0 6 3 1 5 -13 5 -14 0 -19 -2 -12 -5z"/>
<path d="M1572 10510 c0 -19 2 -27 5 -17 2 9 2 25 0 35 -3 9 -5 1 -5 -18z"/>
<path d="M1328 10523 c7 -3 16 -2 19 1 4 3 -2 6 -13 5 -11 0 -14 -3 -6 -6z"/>
<path d="M1225 10500 c-13 -5 -14 -9 -5 -9 8 0 24 4 35 9 13 5 14 9 5 9 -8 0
-24 -4 -35 -9z"/>
<path d="M1651 10463 c-1 -18 4 -23 22 -22 15 1 17 3 5 6 -9 2 -19 12 -21 21
-3 12 -5 10 -6 -5z"/>
<path d="M1508 10433 c7 -3 16 -2 19 1 4 3 -2 6 -13 5 -11 0 -14 -3 -6 -6z"/>
<path d="M1438 10423 c7 -3 16 -2 19 1 4 3 -2 6 -13 5 -11 0 -14 -3 -6 -6z"/>
<path d="M1378 10413 c6 -2 18 -2 25 0 6 3 1 5 -13 5 -14 0 -19 -2 -12 -5z"/>
<path d="M1238 10383 c7 -3 16 -2 19 1 4 3 -2 6 -13 5 -11 0 -14 -3 -6 -6z"/>
<path d="M1183 10373 c9 -2 23 -2 30 0 6 3 -1 5 -18 5 -16 0 -22 -2 -12 -5z"/>
<path d="M1558 10373 c6 -2 18 -2 25 0 6 3 1 5 -13 5 -14 0 -19 -2 -12 -5z"/>
<path d="M1650 10355 c0 -14 2 -25 4 -25 2 0 6 11 8 25 3 14 1 25 -3 25 -5 0
-9 -11 -9 -25z"/>
<path d="M1867 10373 c33 -3 43 -8 46 -26 4 -18 5 -17 6 6 1 26 -1 27 -46 25
l-48 -1 42 -4z"/>
<path d="M1478 10363 c6 -2 18 -2 25 0 6 3 1 5 -13 5 -14 0 -19 -2 -12 -5z"/>
<path d="M1418 10353 c6 -2 18 -2 25 0 6 3 1 5 -13 5 -14 0 -19 -2 -12 -5z"/>
<path d="M1358 10343 c6 -2 18 -2 25 0 6 3 1 5 -13 5 -14 0 -19 -2 -12 -5z"/>
<path d="M1580 10306 c0 -44 0 -45 -37 -49 l-38 -4 43 -1 42 -2 0 50 c0 28 -2
50 -5 50 -3 0 -5 -20 -5 -44z"/>
<path d="M1308 10333 c7 -3 16 -2 19 1 4 3 -2 6 -13 5 -11 0 -14 -3 -6 -6z"/>
<path d="M1258 10323 c6 -2 18 -2 25 0 6 3 1 5 -13 5 -14 0 -19 -2 -12 -5z"/>
<path d="M1208 10313 c6 -2 18 -2 25 0 6 3 1 5 -13 5 -14 0 -19 -2 -12 -5z"/>
<path d="M1654 10259 c-2 -4 42 -9 99 -12 56 -4 118 -9 137 -12 32 -5 33 -4
10 6 -28 12 -240 28 -246 18z"/>
<path d="M1184 10225 c1 -15 8 -20 29 -21 24 -1 24 -1 3 3 -14 2 -27 12 -29
21 -3 12 -4 11 -3 -3z"/>
<path d="M1390 10240 c-50 -11 1 -11 60 -1 41 8 42 8 10 8 -19 0 -51 -3 -70
-7z"/>
<path d="M1318 10223 c6 -2 18 -2 25 0 6 3 1 5 -13 5 -14 0 -19 -2 -12 -5z"/>
<path d="M1258 10213 c6 -2 18 -2 25 0 6 3 1 5 -13 5 -14 0 -19 -2 -12 -5z"/>
<path d="M1415 9630 c-25 -11 1 -11 35 0 20 6 21 8 5 8 -11 0 -29 -3 -40 -8z"/>
<path d="M1335 9598 c-8 -28 -12 -68 -6 -68 17 1 32 19 30 36 -2 11 0 25 4 32
5 8 3 12 -8 12 -8 0 -17 -6 -20 -12z"/>
<path d="M2175 9980 c10 -11 20 -20 23 -20 3 0 -3 9 -13 20 -10 11 -20 20 -23
20 -3 0 3 -9 13 -20z"/>
<path d="M3122 10220 c0 -19 2 -27 5 -17 2 9 2 25 0 35 -3 9 -5 1 -5 -18z"/>
<path d="M3151 10014 c0 -11 3 -14 6 -6 3 7 2 16 -1 19 -3 4 -6 -2 -5 -13z"/>
<path d="M3161 9974 c0 -11 3 -14 6 -6 3 7 2 16 -1 19 -3 4 -6 -2 -5 -13z"/>
<path d="M7185 9231 c-22 -10 -47 -24 -55 -32 -9 -8 -32 -23 -53 -33 -20 -11
-35 -21 -33 -23 4 -4 48 16 101 44 11 6 37 19 58 29 71 35 54 48 -18 15z"/>
<path d="M1705 9420 c-46 -4 -54 -7 -35 -12 22 -6 160 -1 168 7 7 6 -77 10
-133 5z"/>
<path d="M1360 9409 c19 -4 65 -11 102 -14 57 -6 67 -5 63 7 -4 11 -28 14
-103 14 -66 0 -86 -2 -62 -7z"/>
<path d="M1598 9413 c7 -3 16 -2 19 1 4 3 -2 6 -13 5 -11 0 -14 -3 -6 -6z"/>
<path d="M3152 8315 c0 -22 3 -49 8 -60 l9 -20 0 20 c0 11 -4 38 -8 60 l-9 40
0 -40z"/>
<path d="M3161 8215 c1 -19 18 -51 18 -35 0 8 -4 22 -9 30 -5 8 -9 11 -9 5z"/>
<path d="M3110 8086 c0 -10 70 -146 75 -146 3 0 -11 33 -31 73 -38 74 -44 85
-44 73z"/>
<path d="M2975 7785 c-4 -75 -5 -138 -2 -141 2 -3 8 56 12 131 4 75 5 138 2
141 -3 3 -8 -56 -12 -131z"/>
<path d="M6518 7693 c12 -2 32 -2 45 0 12 2 2 4 -23 4 -25 0 -35 -2 -22 -4z"/>
<path d="M4215 6379 c-27 -16 -49 -33 -47 -39 1 -6 -3 -13 -10 -15 -56 -19
-70 -26 -65 -31 11 -11 154 65 171 91 20 31 14 30 -49 -6z"/>
<path d="M4017 6273 c-27 -8 -46 -17 -43 -20 7 -7 95 17 102 28 7 11 0 10 -59
-8z"/>
<path d="M3366 5831 c18 -18 339 -71 520 -86 44 -4 87 -10 94 -15 10 -6 11
-76 5 -350 -7 -316 -9 -344 -26 -361 -22 -22 -43 -23 -194 -9 -137 13 -242 32
-415 76 -149 38 -167 40 -130 19 85 -49 445 -117 633 -119 87 -1 120 2 126 12
10 17 21 299 21 553 l0 196 -137 12 c-141 13 -400 52 -463 71 -43 12 -47 12
-34 1z"/>
<path d="M4993 9123 c9 -2 25 -2 35 0 9 3 1 5 -18 5 -19 0 -27 -2 -17 -5z"/>
<path d="M4845 9096 c-27 -14 -44 -25 -37 -25 7 -1 27 6 43 15 17 8 49 19 72
24 l42 8 -35 1 c-19 0 -57 -10 -85 -23z"/>
<path d="M5395 9079 c-4 -6 -5 -12 -2 -15 2 -3 7 2 10 11 7 17 1 20 -8 4z"/>
<path d="M5365 9030 c3 -5 8 -10 11 -10 2 0 4 5 4 10 0 6 -5 10 -11 10 -5 0
-7 -4 -4 -10z"/>
<path d="M8322 8580 c-220 -59 -355 -237 -340 -449 3 -43 14 -86 32 -123 29
-62 108 -155 150 -177 26 -14 26 -20 10 -82 -3 -9 7 -31 22 -48 34 -41 67 -41
108 2 31 32 31 32 81 20 81 -21 247 -43 317 -43 71 0 148 20 221 57 148 75
245 281 217 459 -39 240 -263 384 -625 399 -100 4 -132 2 -193 -15z m297 -85
c46 -8 86 -17 89 -19 2 -3 -7 -53 -22 -110 -14 -58 -26 -107 -26 -109 0 -3 37
-10 83 -17 113 -16 120 -19 112 -38 -4 -10 -15 -55 -25 -100 -10 -46 -21 -86
-24 -89 -5 -5 -140 12 -177 23 -13 3 -20 -15 -39 -93 -12 -54 -26 -101 -29
-106 -6 -6 -156 15 -198 28 -8 3 -3 34 14 105 14 55 23 103 20 106 -3 3 -46
13 -97 22 -90 16 -92 17 -87 41 12 68 41 187 47 194 4 4 46 2 94 -6 102 -16
91 -25 122 106 20 89 12 85 143 62z"/>
<path d="M7853 7683 c9 -2 23 -2 30 0 6 3 -1 5 -18 5 -16 0 -22 -2 -12 -5z"/>
<path d="M7751 7659 c-13 -11 -22 -21 -20 -23 2 -3 17 7 32 20 15 13 24 24 20
24 -4 -1 -19 -10 -32 -21z"/>
<path d="M8018 7663 c7 -3 16 -2 19 1 4 3 -2 6 -13 5 -11 0 -14 -3 -6 -6z"/>
<path d="M8078 7653 c7 -3 16 -2 19 1 4 3 -2 6 -13 5 -11 0 -14 -3 -6 -6z"/>
<path d="M8138 7643 c7 -3 16 -2 19 1 4 3 -2 6 -13 5 -11 0 -14 -3 -6 -6z"/>
<path d="M8203 7633 c9 -2 23 -2 30 0 6 3 -1 5 -18 5 -16 0 -22 -2 -12 -5z"/>
<path d="M8283 7623 c9 -2 23 -2 30 0 6 3 -1 5 -18 5 -16 0 -22 -2 -12 -5z"/>
<path d="M8343 7613 c9 -2 25 -2 35 0 9 3 1 5 -18 5 -19 0 -27 -2 -17 -5z"/>
<path d="M8418 7603 c7 -3 16 -2 19 1 4 3 -2 6 -13 5 -11 0 -14 -3 -6 -6z"/>
<path d="M8608 7573 c7 -3 16 -2 19 1 4 3 -2 6 -13 5 -11 0 -14 -3 -6 -6z"/>
<path d="M8734 7518 c9 -12 17 -41 18 -63 1 -38 1 -39 5 -6 5 35 -13 91 -29
91 -5 0 -2 -10 6 -22z"/>
<path d="M7661 7384 c0 -11 3 -14 6 -6 3 7 2 16 -1 19 -3 4 -6 -2 -5 -13z"/>
<path d="M7870 7370 c0 -5 5 -10 11 -10 5 0 7 5 4 10 -3 6 -8 10 -11 10 -2 0
-4 -4 -4 -10z"/>
<path d="M8731 7324 c0 -11 3 -14 6 -6 3 7 2 16 -1 19 -3 4 -6 -2 -5 -13z"/>
<path d="M8716 7255 c-4 -17 -15 -38 -23 -47 -11 -12 -12 -18 -4 -18 14 0 44
66 38 83 -2 7 -7 -2 -11 -18z"/>
<path d="M7665 7210 c10 -11 20 -20 23 -20 3 0 -3 9 -13 20 -10 11 -20 20 -23
20 -3 0 3 -9 13 -20z"/>
<path d="M7908 7143 c7 -3 16 -2 19 1 4 3 -2 6 -13 5 -11 0 -14 -3 -6 -6z"/>
<path d="M8631 7124 c0 -11 3 -14 6 -6 3 7 2 16 -1 19 -3 4 -6 -2 -5 -13z"/>
<path d="M8218 7083 c7 -3 16 -2 19 1 4 3 -2 6 -13 5 -11 0 -14 -3 -6 -6z"/>
<path d="M8428 7043 c6 -2 18 -2 25 0 6 3 1 5 -13 5 -14 0 -19 -2 -12 -5z"/>
<path d="M8580 7023 c-14 -7 -18 -13 -10 -13 17 0 47 17 40 23 -3 2 -16 -2
-30 -10z"/>
<path d="M4715 6357 c-109 -62 -116 -204 -14 -279 77 -57 189 -28 225 59 37
87 -5 192 -93 229 -45 19 -72 17 -118 -9z m133 -43 c32 -21 62 -73 62 -109 0
-92 -116 -158 -184 -104 -64 50 -74 144 -21 199 40 42 91 47 143 14z"/>
<path d="M6965 5869 c-133 -43 -281 -80 -373 -93 -222 -33 -621 -52 -767 -38
-49 5 -91 8 -92 8 -5 -3 19 -393 32 -521 19 -182 30 -227 62 -261 l25 -27 191
6 c265 8 585 52 865 118 170 40 168 38 165 183 -3 158 -34 630 -42 638 -3 3
-33 -2 -66 -13z m43 -72 c1 -34 7 -129 12 -212 5 -82 12 -218 16 -301 l6 -150
-67 -23 c-95 -31 -326 -75 -560 -106 -150 -20 -247 -28 -385 -29 l-185 -1 -17
50 c-20 61 -45 278 -61 520 l-12 180 180 -3 c388 -8 727 31 975 112 41 13 80
24 85 25 6 1 11 -27 13 -62z"/>
<path d="M4720 5478 c-82 -57 -109 -160 -65 -248 26 -50 101 -100 150 -100 32
0 93 31 122 62 77 83 46 239 -59 294 -42 22 -110 18 -148 -8z m161 -39 c30
-21 59 -85 59 -130 0 -105 -111 -172 -198 -119 -100 61 -95 210 8 263 41 21
90 16 131 -14z"/>
<path d="M6470 7483 c-67 -35 -91 -73 -97 -157 -8 -91 16 -157 81 -221 71 -71
128 -97 219 -99 39 0 80 3 90 8 34 16 17 -10 -20 -32 -21 -12 -32 -22 -25 -22
18 0 67 38 68 53 1 7 2 17 3 22 1 6 6 3 11 -5 7 -11 14 -4 32 35 34 74 32 191
-4 261 -40 77 -74 112 -141 145 -88 45 -148 48 -217 12z m177 -29 c72 -24 112
-59 144 -128 68 -143 2 -270 -140 -269 -138 0 -241 105 -241 246 0 87 25 127
97 153 51 18 83 17 140 -2z"/>
<path d="M6405 7060 c3 -5 16 -15 28 -21 l22 -11 -22 21 c-23 22 -39 28 -28
11z"/>
<path d="M6490 7000 c8 -5 26 -9 40 -9 l25 1 -25 8 c-14 4 -32 8 -40 9 -13 1
-13 0 0 -9z"/>
<path d="M9472 6958 c-10 -30 -10 -31 3 -14 13 17 21 46 12 46 -1 0 -8 -15
-15 -32z"/>
<path d="M9339 6803 c-13 -15 -12 -15 9 -4 23 12 28 21 13 21 -5 0 -15 -7 -22
-17z"/>
<path d="M9270 6775 c-19 -7 -28 -14 -20 -14 8 0 29 6 45 14 39 17 21 18 -25
0z"/>
<path d="M5965 7130 c-3 -5 -3 -11 2 -11 4 -1 -5 -5 -22 -9 -30 -8 -30 -8 8
-9 31 -1 37 2 37 19 0 21 -15 27 -25 10z"/>
<path d="M6040 6658 l0 -98 -95 0 -95 0 0 -105 0 -105 95 0 95 0 0 -115 0
-114 95 0 95 0 0 115 0 114 105 0 105 0 0 100 0 100 -105 0 -105 0 0 103 0
102 -95 0 -95 0 0 -97z"/>
<path d="M7625 6335 c39 -32 58 -32 22 0 -15 14 -33 25 -40 25 -7 -1 2 -12 18
-25z"/>
<path d="M7968 6293 c7 -3 16 -2 19 1 4 3 -2 6 -13 5 -11 0 -14 -3 -6 -6z"/>
<path d="M8110 6260 c-14 -26 1 -26 31 0 l24 19 -22 1 c-12 0 -27 -9 -33 -20z"/>
<path d="M7750 6255 c0 -7 61 -37 66 -33 2 3 -12 12 -31 21 -19 9 -35 15 -35
12z"/>
<path d="M7841 6221 c-16 -10 62 -31 118 -31 31 0 41 4 41 16 0 11 -6 14 -21
9 -32 -10 -111 -8 -118 4 -4 5 -12 6 -20 2z"/>
<path d="M3943 3812 c-8 -5 10 -17 47 -34 73 -32 80 -27 9 6 -28 14 -45 26
-37 29 7 3 9 6 3 6 -5 0 -15 -3 -22 -7z"/>
<path d="M7005 3709 c22 -4 51 -8 65 -7 l25 0 -25 8 c-14 4 -43 8 -65 8 l-40
0 40 -9z"/>
<path d="M7103 3693 c3 -5 -25 -9 -61 -11 -37 -1 -70 -6 -74 -10 -4 -4 39 -6
95 -4 91 3 100 5 83 18 -21 15 -51 19 -43 7z"/>
<path d="M6625 3660 c-19 -8 -19 -9 3 -9 12 -1 22 4 22 9 0 6 -1 10 -2 9 -2 0
-12 -4 -23 -9z"/>
<path d="M4150 3050 c0 -5 5 -10 11 -10 5 0 7 5 4 10 -3 6 -8 10 -11 10 -2 0
-4 -4 -4 -10z"/>
</g>
</svg>
